<svg width="164" height="164" viewBox="0 0 164 164" fill="none" xmlns="http://www.w3.org/2000/svg">
<path opacity="0.2" d="M150.798 82C150.798 120.959 119.974 152.5 82.0007 152.5C44.0275 152.5 13.2031 120.959 13.2031 82C13.2031 43.0411 44.0275 11.5 82.0007 11.5C119.974 11.5 150.798 43.0411 150.798 82Z" stroke="#2AAF8C" stroke-width="2"/>
<path d="M138.095 74.0757C138.43 76.5888 138.608 79.1531 138.618 81.758L137.618 81.762C137.619 81.8413 137.619 81.9206 137.619 82C137.619 82.0794 137.619 82.1587 137.618 82.238L138.618 82.242C138.608 84.8469 138.43 87.4112 138.095 89.9243L137.104 89.7921C137.095 89.8543 137.087 89.9166 137.078 89.9788C137.066 90.0726 137.053 90.1663 137.039 90.2599L138.029 90.4001C137.665 92.9706 137.137 95.4865 136.455 97.9363L135.492 97.6681C135.449 97.8201 135.406 97.9718 135.363 98.1232L136.324 98.3993C135.609 100.887 134.736 103.305 133.717 105.642L132.8 105.242C132.737 105.387 132.674 105.531 132.609 105.675L133.523 106.083C132.471 108.441 131.269 110.714 129.93 112.89L129.078 112.366C129.035 112.436 128.992 112.506 128.948 112.575C128.909 112.64 128.868 112.704 128.828 112.768L129.676 113.299C128.307 115.483 126.799 117.566 125.164 119.536L124.395 118.898C124.294 119.019 124.193 119.14 124.091 119.261L124.855 119.906C123.196 121.872 121.411 123.723 119.511 125.445L118.839 124.705C118.723 124.811 118.605 124.916 118.488 125.021L119.153 125.767C117.236 127.476 115.206 129.055 113.075 130.491L112.517 129.662C112.386 129.75 112.255 129.837 112.123 129.924L112.675 130.758C110.538 132.172 108.302 133.443 105.98 134.556L105.548 133.655C105.406 133.723 105.263 133.79 105.121 133.857L105.545 134.763C103.232 135.848 100.835 136.778 98.3663 137.54L98.0713 136.585C97.921 136.631 97.7704 136.677 97.6195 136.722L97.9062 137.68C95.4666 138.41 92.9589 138.976 90.395 139.367L90.2445 138.378C90.0892 138.402 89.9338 138.425 89.7781 138.447L89.9201 139.437C87.4097 139.797 84.8466 139.988 82.2419 139.999L82.2376 138.999C82.1584 139 82.0792 139 81.9999 139C81.9206 139 81.8414 139 81.7622 138.999L81.7579 139.999C79.1532 139.988 76.5901 139.797 74.0797 139.437L74.2217 138.447C74.066 138.425 73.9106 138.402 73.7553 138.378L73.6048 139.367C71.0409 138.976 68.5332 138.41 66.0936 137.68L66.3803 136.722C66.2294 136.677 66.0789 136.631 65.9285 136.585L65.6335 137.54C63.1652 136.778 60.7681 135.848 58.4546 134.763L58.8793 133.857C58.7366 133.79 58.5943 133.723 58.4523 133.655L58.0198 134.556C55.6979 133.443 53.4618 132.172 51.3247 130.758L51.8764 129.924C51.745 129.837 51.6139 129.75 51.4832 129.662L50.9243 130.491C48.7938 129.055 46.7636 127.476 44.8467 125.767L45.5122 125.021C45.3945 124.916 45.2772 124.811 45.1604 124.705L44.4887 125.445C42.5891 123.723 40.8034 121.872 39.1444 119.906L39.9087 119.261C39.807 119.14 39.7058 119.019 39.6051 118.898L38.8354 119.536C37.2012 117.566 35.6932 115.483 34.3243 113.299L35.1716 112.768C35.0878 112.634 35.0045 112.5 34.9218 112.366L34.0702 112.89C32.7311 110.714 31.5292 108.441 30.4771 106.083L31.3904 105.675C31.3261 105.531 31.2624 105.387 31.1993 105.242L30.2828 105.642C29.2633 103.305 28.3903 100.887 27.6758 98.3992L28.6369 98.1232C28.5934 97.9718 28.5505 97.8201 28.5082 97.6681L27.5449 97.9363C26.863 95.4865 26.3344 92.9706 25.9703 90.4001L26.9604 90.2599C26.9384 90.1041 26.9169 89.9482 26.8961 89.7921L25.9049 89.9243C25.5697 87.4112 25.3917 84.8469 25.3813 82.242L26.3813 82.238C26.381 82.1587 26.3809 82.0794 26.3809 82C26.3809 81.9206 26.381 81.8413 26.3813 81.762L25.3813 81.758C25.3917 79.1531 25.5697 76.5888 25.9049 74.0757L26.8961 74.2079C26.9169 74.0518 26.9384 73.8959 26.9604 73.7401L25.9703 73.5999C26.3344 71.0294 26.863 68.5135 27.5449 66.0637L28.5082 66.3319C28.5505 66.1799 28.5934 66.0282 28.6369 65.8768L27.6758 65.6007C28.3903 63.1129 29.2633 60.6945 30.2828 58.3579L31.1993 58.7578C31.2624 58.6132 31.3261 58.4689 31.3904 58.3249L30.4771 57.9174C31.5292 55.5592 32.7311 53.2858 34.0702 51.11L34.9218 51.6341C35.0045 51.4997 35.0878 51.3657 35.1716 51.2321L34.3243 50.7009C35.6932 48.5173 37.2012 46.4339 38.8354 44.4638L39.6051 45.1022C39.7058 44.9808 39.807 44.8598 39.9087 44.7392L39.1444 44.0944C40.8034 42.128 42.5891 40.2769 44.4887 38.5545L45.1604 39.2953C45.2772 39.1894 45.3945 39.084 45.5122 38.979L44.8467 38.2326C46.7636 36.5236 48.7938 34.9446 50.9243 33.5089L51.4832 34.3382C51.6139 34.2501 51.745 34.1626 51.8764 34.0756L51.3247 33.2416C53.4618 31.8278 55.6979 30.5574 58.0198 29.4437L58.4523 30.3454C58.5943 30.2773 58.7366 30.2097 58.8793 30.1428L58.4546 29.2375C60.7681 28.1524 63.1653 27.2222 65.6335 26.46L65.9286 27.4155C66.0789 27.3691 66.2294 27.3233 66.3803 27.2781L66.0936 26.3201C68.5332 25.59 71.0409 25.0236 73.6048 24.6332L73.7553 25.6218C73.9106 25.5981 74.066 25.5752 74.2217 25.5528L74.0798 24.563C76.5901 24.203 79.1533 24.0117 81.7579 24.0005L81.7622 25.0005C81.8414 25.0002 81.9206 25 81.9999 25C82.0792 25 82.1584 25.0002 82.2376 25.0005L82.2419 24.0005C84.8466 24.0117 87.4097 24.203 89.9201 24.563L89.7781 25.5528C89.9338 25.5752 90.0892 25.5981 90.2445 25.6218L90.395 24.6332C92.9589 25.0236 95.4667 25.59 97.9063 26.3201L97.6195 27.2781C97.7704 27.3233 97.921 27.3691 98.0713 27.4155L98.3663 26.46C100.835 27.2222 103.232 28.1524 105.545 29.2375L105.121 30.1428C105.263 30.2097 105.406 30.2773 105.548 30.3454L105.98 29.4437C108.302 30.5574 110.538 31.8278 112.675 33.2416L112.123 34.0756C112.255 34.1626 112.386 34.2501 112.517 34.3382L113.075 33.5089C115.206 34.9446 117.236 36.5236 119.153 38.2326L118.488 38.979C118.605 39.084 118.723 39.1894 118.839 39.2953L119.511 38.5545C121.411 40.2769 123.196 42.128 124.855 44.0944L124.091 44.7392C124.193 44.8598 124.294 44.9808 124.395 45.1022L125.164 44.4638C126.799 46.4339 128.307 48.5173 129.676 50.7009L128.828 51.2321C128.912 51.3657 128.995 51.4997 129.078 51.6341L129.93 51.11C131.269 53.2858 132.471 55.5592 133.523 57.9174L132.609 58.3249C132.674 58.4689 132.737 58.6132 132.8 58.7578L133.717 58.3579C134.737 60.6945 135.609 63.1129 136.324 65.6008L135.363 65.8768C135.406 66.0282 135.449 66.1799 135.492 66.3319L136.455 66.0637C137.137 68.5135 137.665 71.0294 138.029 73.5999L137.039 73.7401C137.061 73.8959 137.083 74.0518 137.104 74.2079L138.095 74.0757Z" stroke="#2AAF8C" stroke-width="2" stroke-dasharray="0.5 8"/>
<g filter="url(#filter0_bi_1069_1123)">
<path d="M81.9994 137C111.688 137 135.714 112.353 135.714 82C135.714 51.6472 111.688 27 81.9994 27C52.3113 27 28.2852 51.6472 28.2852 82C28.2852 112.353 52.3113 137 81.9994 137Z" stroke="#2AAF8C" stroke-opacity="0.05" stroke-width="2"/>
<path d="M81.9994 137C111.688 137 135.714 112.353 135.714 82C135.714 51.6472 111.688 27 81.9994 27C52.3113 27 28.2852 51.6472 28.2852 82C28.2852 112.353 52.3113 137 81.9994 137Z" stroke="url(#paint0_linear_1069_1123)" stroke-opacity="0.5" stroke-width="2"/>
</g>
<circle cx="2.61354" cy="2.61354" r="2.61354" transform="matrix(0.698537 0.715574 -0.698537 0.715574 44.6523 40.5)" fill="#2AAF8C"/>
<circle cx="2.61354" cy="2.61354" r="2.61354" transform="matrix(0.698537 0.715574 -0.698537 0.715574 118.859 116.828)" fill="#2AAF8C"/>
<path d="M110.594 53.3162L53.5012 111.801" stroke="#2AAF8C" stroke-width="2" stroke-linecap="round"/>
<path d="M91.4766 63.3713L63.0594 92.4816" stroke="#2AAF8C" stroke-width="2" stroke-linecap="round"/>
<path d="M83.2129 62.3129L62.5459 83.4839" stroke="#2AAF8C" stroke-width="2" stroke-linecap="round"/>
<path d="M75.9785 60.196L60.4783 76.0743" stroke="#2AAF8C" stroke-width="2" stroke-linecap="round"/>
<path d="M68.7441 58.0791L58.4106 68.6646" stroke="#2AAF8C" stroke-width="2" stroke-linecap="round"/>
<path d="M61.5078 55.9622L56.3411 61.2549" stroke="#2AAF8C" stroke-width="2" stroke-linecap="round"/>
<path d="M55.3086 52.7869L52.7252 55.4332" stroke="#2AAF8C" stroke-width="2" stroke-linecap="round"/>
<path d="M50.6602 48.021L48.0768 50.6674" stroke="#2AAF8C" stroke-width="2" stroke-linecap="round"/>
<path opacity="0.2" d="M100.775 72.8972L72.3583 102.007" stroke="#2AAF8C" stroke-width="2" stroke-linecap="round"/>
<path opacity="0.2" d="M101.809 81.3677L81.1416 102.539" stroke="#2AAF8C" stroke-width="2" stroke-linecap="round"/>
<path opacity="0.2" d="M103.875 88.7769L88.3748 104.655" stroke="#2AAF8C" stroke-width="2" stroke-linecap="round"/>
<path opacity="0.2" d="M105.941 96.1858L95.6079 106.771" stroke="#2AAF8C" stroke-width="2" stroke-linecap="round"/>
<path opacity="0.2" d="M108.008 103.595L102.841 108.888" stroke="#2AAF8C" stroke-width="2" stroke-linecap="round"/>
<path opacity="0.2" d="M111.109 109.948L108.526 112.595" stroke="#2AAF8C" stroke-width="2" stroke-linecap="round"/>
<path d="M115.76 114.711L113.176 117.358" stroke="#2AAF8C" stroke-width="2" stroke-linecap="round"/>
<defs>
<filter id="filter0_bi_1069_1123" x="11.2852" y="10" width="141.428" height="144" filterUnits="userSpaceOnUse" color-interpolation-filters="sRGB">
<feFlood flood-opacity="0" result="BackgroundImageFix"/>
<feGaussianBlur in="BackgroundImageFix" stdDeviation="8"/>
<feComposite in2="SourceAlpha" operator="in" result="effect1_backgroundBlur_1069_1123"/>
<feBlend mode="normal" in="SourceGraphic" in2="effect1_backgroundBlur_1069_1123" result="shape"/>
<feColorMatrix in="SourceAlpha" type="matrix" values="0 0 0 0 0 0 0 0 0 0 0 0 0 0 0 0 0 0 127 0" result="hardAlpha"/>
<feOffset/>
<feGaussianBlur stdDeviation="2"/>
<feComposite in2="hardAlpha" operator="arithmetic" k2="-1" k3="1"/>
<feColorMatrix type="matrix" values="0 0 0 0 1 0 0 0 0 1 0 0 0 0 1 0 0 0 1 0"/>
<feBlend mode="multiply" in2="shape" result="effect2_innerShadow_1069_1123"/>
</filter>
<linearGradient id="paint0_linear_1069_1123" x1="81.9994" y1="28" x2="81.9994" y2="184.75" gradientUnits="userSpaceOnUse">
<stop stop-color="#2AAF8C" stop-opacity="0.7"/>
<stop offset="1" stop-color="#2AAF8C" stop-opacity="0"/>
</linearGradient>
</defs>
</svg>
