<svg width="164" height="164" viewBox="0 0 164 164" fill="none" xmlns="http://www.w3.org/2000/svg">
<path opacity="0.5" d="M101.142 70.5921C101.142 73.2324 99.3172 75.8033 95.9771 77.7689C92.66 79.7209 88.012 80.9605 82.8242 80.9605C77.6363 80.9605 72.9883 79.7209 69.6712 77.7689C66.3311 75.8033 64.5059 73.2324 64.5059 70.5921C64.5059 67.9517 66.3311 65.3808 69.6712 63.4152C72.9883 61.4632 77.6363 60.2236 82.8242 60.2236C88.012 60.2236 92.66 61.4632 95.9771 63.4152C99.3172 65.3808 101.142 67.9517 101.142 70.5921Z" stroke="#2AAF8C" stroke-width="2"/>
<path opacity="0.5" d="M101.142 81.9605C101.142 84.6008 99.3172 87.1717 95.9771 89.1373C92.66 91.0893 88.012 92.3289 82.8242 92.3289C77.6363 92.3289 72.9883 91.0893 69.6712 89.1373C66.3311 87.1717 64.5059 84.6008 64.5059 81.9605C64.5059 79.3201 66.3311 76.7492 69.6712 74.7836C72.9883 72.8316 77.6363 71.592 82.8242 71.592C88.012 71.592 92.66 72.8316 95.9771 74.7836C99.3172 76.7492 101.142 79.3201 101.142 81.9605Z" stroke="#2AAF8C" stroke-width="2"/>
<path opacity="0.5" d="M101.971 91.8096C102.047 92.1415 102.098 92.478 102.123 92.8183L101.126 92.8932C101.137 93.0376 101.142 93.1828 101.142 93.3289C101.142 93.4749 101.137 93.6201 101.126 93.7645L102.123 93.8394C102.098 94.1797 102.047 94.5162 101.971 94.8481L100.996 94.6268C100.932 94.9098 100.847 95.1905 100.741 95.4686L101.676 95.8243C101.556 96.1389 101.414 96.4487 101.251 96.7529L100.369 96.2804C100.23 96.5405 100.072 96.798 99.8956 97.0523L100.717 97.6222C100.527 97.8969 100.319 98.1662 100.093 98.4297L99.3332 97.78C99.136 98.0108 98.9232 98.2381 98.6953 98.4613L99.395 99.1758C99.1565 99.4093 98.9042 99.6375 98.6386 99.8597L97.9968 99.0929C97.7586 99.2923 97.5079 99.4874 97.2453 99.6779L97.8323 100.487C97.5614 100.684 97.2795 100.875 96.9873 101.06L96.4518 100.216C96.1853 100.385 95.909 100.549 95.6231 100.708L96.1102 101.582C95.8169 101.745 95.5149 101.904 95.2046 102.056L94.7633 101.159C94.4766 101.3 94.1819 101.436 93.8796 101.567L94.2777 102.485C93.9696 102.618 93.6546 102.747 93.3329 102.87L92.9759 101.936C92.6749 102.051 92.3674 102.161 92.0538 102.266L92.3716 103.214C92.0522 103.321 91.7271 103.423 91.3966 103.52L91.1164 102.56C90.8049 102.651 90.4881 102.737 90.1664 102.817L90.4103 103.787C90.0832 103.87 89.7515 103.947 89.4155 104.018L89.2066 103.04C88.8882 103.108 88.5656 103.172 88.239 103.23L88.4138 104.214C88.0815 104.273 87.7454 104.327 87.4058 104.376L87.2642 103.386C86.9407 103.432 86.6137 103.473 86.2836 103.51L86.3929 104.504C86.057 104.541 85.718 104.572 85.3762 104.599L85.2988 103.602C84.9721 103.627 84.6427 103.648 84.3108 103.663L84.357 104.662C84.0191 104.678 83.6788 104.688 83.3362 104.693L83.3209 103.693C83.1559 103.696 82.9903 103.697 82.8242 103.697C82.658 103.697 82.4924 103.696 82.3274 103.693L82.3121 104.693C81.9695 104.688 81.6292 104.678 81.2913 104.662L81.3375 103.663C81.0056 103.648 80.6762 103.627 80.3495 103.602L80.2721 104.599C79.9303 104.572 79.5913 104.541 79.2554 104.504L79.3647 103.51C79.0346 103.473 78.7076 103.432 78.3842 103.386L78.2425 104.376C77.9029 104.327 77.5668 104.273 77.2345 104.214L77.4093 103.23C77.0827 103.172 76.7601 103.108 76.4417 103.04L76.2329 104.018C75.8968 103.947 75.5651 103.87 75.238 103.787L75.482 102.817C75.1602 102.737 74.8434 102.651 74.5319 102.56L74.2517 103.52C73.9212 103.423 73.5961 103.321 73.2767 103.214L73.5945 102.266C73.2809 102.161 72.9735 102.051 72.6724 101.936L72.3154 102.87C71.9937 102.747 71.6787 102.618 71.3706 102.485L71.7687 101.567C71.4664 101.436 71.1717 101.3 70.885 101.159L70.4437 102.056C70.1334 101.904 69.8314 101.745 69.5381 101.582L70.0252 100.708C69.7393 100.549 69.463 100.385 69.1965 100.216L68.661 101.06C68.3688 100.875 68.0869 100.684 67.816 100.487L68.4031 99.6779C68.1404 99.4874 67.8897 99.2923 67.6515 99.0929L67.0097 99.8597C66.7441 99.6375 66.4918 99.4093 66.2533 99.1758L66.953 98.4613C66.7251 98.2381 66.5123 98.0108 66.3151 97.78L65.5549 98.4297C65.3297 98.1662 65.1215 97.8969 64.931 97.6222L65.7527 97.0523C65.5763 96.798 65.4182 96.5405 65.2788 96.2804L64.3975 96.7529C64.2344 96.4487 64.0925 96.1389 63.9727 95.8243L64.9073 95.4686C64.8015 95.1905 64.7163 94.9098 64.6521 94.6268L63.6769 94.8481C63.6015 94.5162 63.5506 94.1798 63.525 93.8394L64.5222 93.7645C64.5113 93.6201 64.5059 93.4749 64.5059 93.3289C64.5059 93.1828 64.5113 93.0376 64.5222 92.8932L63.525 92.8183C63.5506 92.478 63.6015 92.1415 63.6769 91.8096L64.6521 92.0309C64.7163 91.7479 64.8015 91.4672 64.9073 91.1892L63.9727 90.8335C64.0925 90.5188 64.2344 90.2091 64.3975 89.9049L65.2788 90.3773C65.4182 90.1173 65.5763 89.8598 65.7527 89.6054L64.931 89.0355C65.1215 88.7608 65.3297 88.4915 65.5549 88.228L66.3151 88.8777C66.5123 88.6469 66.7251 88.4196 66.953 88.1964L66.2533 87.482C66.4918 87.2484 66.7441 87.0203 67.0097 86.798L67.6515 87.5648C67.8897 87.3655 68.1404 87.1703 68.4031 86.9798L67.816 86.1703C68.0869 85.9738 68.3688 85.7828 68.661 85.5975L69.1965 86.442C69.463 86.273 69.7393 86.1087 70.0252 85.9493L69.5381 85.0759C69.8314 84.9123 70.1334 84.7541 70.4437 84.6015L70.885 85.4989C71.1717 85.3579 71.4664 85.2216 71.7687 85.0905L71.3706 84.1731C71.6787 84.0394 71.9937 83.911 72.3154 83.7881L72.6724 84.7221C72.9735 84.6071 73.2809 84.4969 73.5945 84.3918L73.2767 83.4436C73.5961 83.3366 73.9212 83.2347 74.2517 83.1382L74.5319 84.0982C74.8434 84.0072 75.1602 83.9212 75.482 83.8403L75.238 82.8705C75.5651 82.7882 75.8968 82.7111 76.2329 82.6393L76.4417 83.6173C76.7601 83.5493 77.0827 83.4862 77.4093 83.4282L77.2345 82.4436C77.5668 82.3846 77.9029 82.3307 78.2425 82.2821L78.3842 83.272C78.7076 83.2257 79.0346 83.1843 79.3647 83.1481L79.2554 82.154C79.5913 82.1171 79.9303 82.0853 80.2721 82.0588L80.3495 83.0558C80.6762 83.0304 81.0056 83.01 81.3375 82.9946L81.2913 81.9957C81.6292 81.9801 81.9695 81.9696 82.3121 81.9644L82.3274 82.9642C82.4924 82.9617 82.658 82.9604 82.8242 82.9604C82.9903 82.9604 83.1559 82.9617 83.3209 82.9642L83.3362 81.9644C83.6788 81.9696 84.0191 81.9801 84.357 81.9957L84.3108 82.9946C84.6427 83.01 84.9721 83.0304 85.2988 83.0558L85.3762 82.0588C85.718 82.0853 86.057 82.1171 86.3929 82.154L86.2836 83.1481C86.6137 83.1843 86.9407 83.2257 87.2642 83.272L87.4058 82.2821C87.7454 82.3307 88.0815 82.3846 88.4138 82.4436L88.239 83.4282C88.5656 83.4862 88.8882 83.5493 89.2066 83.6173L89.4155 82.6393C89.7515 82.7111 90.0832 82.7882 90.4103 82.8705L90.1664 83.8403C90.4881 83.9212 90.8049 84.0072 91.1164 84.0982L91.3966 83.1382C91.7271 83.2347 92.0522 83.3366 92.3716 83.4436L92.0538 84.3918C92.3674 84.4969 92.6749 84.6071 92.9759 84.7221L93.3329 83.7881C93.6546 83.911 93.9696 84.0394 94.2777 84.1731L93.8796 85.0905C94.1819 85.2216 94.4766 85.3579 94.7633 85.4989L95.2046 84.6015C95.5149 84.7541 95.8169 84.9123 96.1102 85.0759L95.6231 85.9493C95.909 86.1087 96.1853 86.273 96.4518 86.442L96.9873 85.5975C97.2795 85.7828 97.5614 85.9738 97.8323 86.1703L97.2453 86.9798C97.5079 87.1703 97.7586 87.3655 97.9968 87.5648L98.6386 86.798C98.9042 87.0203 99.1565 87.2484 99.395 87.482L98.6953 88.1964C98.9232 88.4196 99.136 88.6469 99.3332 88.8777L100.093 88.228C100.319 88.4915 100.527 88.7608 100.717 89.0355L99.8956 89.6054C100.072 89.8598 100.23 90.1173 100.369 90.3773L101.251 89.9049C101.414 90.2091 101.556 90.5188 101.676 90.8335L100.741 91.1891C100.847 91.4672 100.932 91.7479 100.996 92.0309L101.971 91.8096Z" stroke="#2AAF8C" stroke-width="2" stroke-dasharray="1 1"/>
<path opacity="0.2" d="M125.803 81.75C125.803 106.219 106.445 126.013 82.6171 126.013C58.789 126.013 39.4316 106.219 39.4316 81.75C39.4316 57.2813 58.789 37.4868 82.6171 37.4868C106.445 37.4868 125.803 57.2813 125.803 81.75Z" stroke="#2AAF8C" stroke-width="2"/>
<path opacity="0.2" d="M138.544 81.75C138.544 113.427 113.482 139.066 82.6168 139.066C51.7515 139.066 26.6895 113.427 26.6895 81.75C26.6895 50.0725 51.7515 24.4342 82.6168 24.4342C113.482 24.4342 138.544 50.0725 138.544 81.75Z" stroke="#2AAF8C" stroke-width="2"/>
<path opacity="0.2" d="M151.286 81.75C151.286 120.636 120.519 152.118 82.6164 152.118C44.7141 152.118 13.9473 120.636 13.9473 81.75C13.9473 42.8638 44.7141 11.3816 82.6164 11.3816C120.519 11.3816 151.286 42.8638 151.286 81.75Z" stroke="#2AAF8C" stroke-width="2"/>
<path d="M138.546 36.4868C138.546 37.3526 137.867 38.0131 137.079 38.0131C136.292 38.0131 135.613 37.3526 135.613 36.4868C135.613 35.621 136.292 34.9604 137.079 34.9604C137.867 34.9604 138.546 35.621 138.546 36.4868Z" fill="#2AAF8C" stroke="url(#paint0_linear_1069_1109)" stroke-width="2"/>
<path d="M28.8015 68.9079C28.8015 69.7737 28.1225 70.4342 27.3353 70.4342C26.5481 70.4342 25.8691 69.7737 25.8691 68.9079C25.8691 68.0421 26.5481 67.3816 27.3353 67.3816C28.1225 67.3816 28.8015 68.0421 28.8015 68.9079Z" fill="#2AAF8C" stroke="url(#paint1_linear_1069_1109)" stroke-width="2"/>
<path d="M126.624 93.3289C126.624 94.1947 125.945 94.8552 125.158 94.8552C124.37 94.8552 123.691 94.1947 123.691 93.3289C123.691 92.4631 124.37 91.8026 125.158 91.8026C125.945 91.8026 126.624 92.4631 126.624 93.3289Z" fill="#2AAF8C" stroke="url(#paint2_linear_1069_1109)" stroke-width="2"/>
<path d="M117.171 144.526C117.171 145.392 116.492 146.053 115.704 146.053C114.917 146.053 114.238 145.392 114.238 144.526C114.238 143.661 114.917 143 115.704 143C116.492 143 117.171 143.661 117.171 144.526Z" fill="#2AAF8C" stroke="url(#paint3_linear_1069_1109)" stroke-width="2"/>
<path d="M16.1355 97.1181C16.1355 97.9839 15.4565 98.6444 14.6693 98.6444C13.8821 98.6444 13.2031 97.9839 13.2031 97.1181C13.2031 96.2523 13.8821 95.5918 14.6693 95.5918C15.4565 95.5918 16.1355 96.2523 16.1355 97.1181Z" fill="#2AAF8C" stroke="url(#paint4_linear_1069_1109)" stroke-width="2"/>
<path d="M81.823 23.4343C81.823 24.3001 81.144 24.9606 80.3568 24.9606C79.5696 24.9606 78.8906 24.3001 78.8906 23.4343C78.8906 22.5685 79.5696 21.908 80.3568 21.908C81.144 21.908 81.823 22.5685 81.823 23.4343Z" fill="#2AAF8C" stroke="url(#paint5_linear_1069_1109)" stroke-width="2"/>
<defs>
<linearGradient id="paint0_linear_1069_1109" x1="137.079" y1="33.9604" x2="139.316" y2="39.4719" gradientUnits="userSpaceOnUse">
<stop stop-color="white" stop-opacity="0.4"/>
<stop offset="0.4" stop-color="white" stop-opacity="0"/>
<stop offset="0.6" stop-color="white" stop-opacity="0"/>
<stop offset="1" stop-color="white" stop-opacity="0.1"/>
</linearGradient>
<linearGradient id="paint1_linear_1069_1109" x1="27.3353" y1="66.3816" x2="29.5719" y2="71.8931" gradientUnits="userSpaceOnUse">
<stop stop-color="white" stop-opacity="0.4"/>
<stop offset="0.4" stop-color="white" stop-opacity="0"/>
<stop offset="0.6" stop-color="white" stop-opacity="0"/>
<stop offset="1" stop-color="white" stop-opacity="0.1"/>
</linearGradient>
<linearGradient id="paint2_linear_1069_1109" x1="125.158" y1="90.8026" x2="127.394" y2="96.3141" gradientUnits="userSpaceOnUse">
<stop stop-color="white" stop-opacity="0.4"/>
<stop offset="0.4" stop-color="white" stop-opacity="0"/>
<stop offset="0.6" stop-color="white" stop-opacity="0"/>
<stop offset="1" stop-color="white" stop-opacity="0.1"/>
</linearGradient>
<linearGradient id="paint3_linear_1069_1109" x1="115.704" y1="142" x2="117.941" y2="147.511" gradientUnits="userSpaceOnUse">
<stop stop-color="white" stop-opacity="0.4"/>
<stop offset="0.4" stop-color="white" stop-opacity="0"/>
<stop offset="0.6" stop-color="white" stop-opacity="0"/>
<stop offset="1" stop-color="white" stop-opacity="0.1"/>
</linearGradient>
<linearGradient id="paint4_linear_1069_1109" x1="14.6693" y1="94.5918" x2="16.9059" y2="100.103" gradientUnits="userSpaceOnUse">
<stop stop-color="white" stop-opacity="0.4"/>
<stop offset="0.4" stop-color="white" stop-opacity="0"/>
<stop offset="0.6" stop-color="white" stop-opacity="0"/>
<stop offset="1" stop-color="white" stop-opacity="0.1"/>
</linearGradient>
<linearGradient id="paint5_linear_1069_1109" x1="80.3568" y1="20.908" x2="82.5934" y2="26.4195" gradientUnits="userSpaceOnUse">
<stop stop-color="white" stop-opacity="0.4"/>
<stop offset="0.4" stop-color="white" stop-opacity="0"/>
<stop offset="0.6" stop-color="white" stop-opacity="0"/>
<stop offset="1" stop-color="white" stop-opacity="0.1"/>
</linearGradient>
</defs>
</svg>
