<svg width="164" height="164" viewBox="0 0 164 164" fill="none" xmlns="http://www.w3.org/2000/svg">
<path opacity="0.2" d="M151.286 82C151.286 121.235 120.243 153 82.0006 153C43.7577 153 12.7148 121.235 12.7148 82C12.7148 42.7649 43.7577 11 82.0006 11C120.243 11 151.286 42.7649 151.286 82Z" stroke="#2AAF8C" stroke-width="2"/>
<g filter="url(#filter0_b_1069_1073)">
<path d="M138.095 74.0757C138.43 76.5888 138.608 79.1531 138.618 81.758L137.618 81.762C137.619 81.8413 137.619 81.9206 137.619 82C137.619 82.0794 137.619 82.1587 137.618 82.238L138.618 82.242C138.608 84.8469 138.43 87.4112 138.095 89.9243L137.104 89.7921C137.095 89.8543 137.087 89.9166 137.078 89.9788C137.066 90.0726 137.053 90.1663 137.039 90.2599L138.029 90.4001C137.665 92.9706 137.137 95.4865 136.455 97.9363L135.492 97.6681C135.449 97.8201 135.406 97.9718 135.363 98.1232L136.324 98.3993C135.609 100.887 134.736 103.305 133.717 105.642L132.8 105.242C132.737 105.387 132.674 105.531 132.609 105.675L133.523 106.083C132.471 108.441 131.269 110.714 129.93 112.89L129.078 112.366C129.035 112.436 128.992 112.506 128.948 112.575C128.909 112.64 128.868 112.704 128.828 112.768L129.676 113.299C128.307 115.483 126.799 117.566 125.164 119.536L124.395 118.898C124.294 119.019 124.193 119.14 124.091 119.261L124.855 119.906C123.196 121.872 121.411 123.723 119.511 125.445L118.839 124.705C118.723 124.811 118.605 124.916 118.488 125.021L119.153 125.767C117.236 127.476 115.206 129.055 113.075 130.491L112.517 129.662C112.386 129.75 112.255 129.837 112.123 129.924L112.675 130.758C110.538 132.172 108.302 133.443 105.98 134.556L105.548 133.655C105.406 133.723 105.263 133.79 105.121 133.857L105.545 134.763C103.232 135.848 100.835 136.778 98.3663 137.54L98.0713 136.585C97.921 136.631 97.7704 136.677 97.6195 136.722L97.9062 137.68C95.4666 138.41 92.9589 138.976 90.395 139.367L90.2445 138.378C90.0892 138.402 89.9338 138.425 89.7781 138.447L89.9201 139.437C87.4097 139.797 84.8466 139.988 82.2419 139.999L82.2376 138.999C82.1584 139 82.0792 139 81.9999 139C81.9206 139 81.8414 139 81.7622 138.999L81.7579 139.999C79.1532 139.988 76.5901 139.797 74.0797 139.437L74.2217 138.447C74.066 138.425 73.9106 138.402 73.7553 138.378L73.6048 139.367C71.0409 138.976 68.5332 138.41 66.0936 137.68L66.3803 136.722C66.2294 136.677 66.0789 136.631 65.9285 136.585L65.6335 137.54C63.1652 136.778 60.7681 135.848 58.4546 134.763L58.8793 133.857C58.7366 133.79 58.5943 133.723 58.4523 133.655L58.0198 134.556C55.6979 133.443 53.4618 132.172 51.3247 130.758L51.8764 129.924C51.745 129.837 51.6139 129.75 51.4832 129.662L50.9243 130.491C48.7938 129.055 46.7636 127.476 44.8467 125.767L45.5122 125.021C45.3945 124.916 45.2772 124.811 45.1604 124.705L44.4887 125.445C42.5891 123.723 40.8034 121.872 39.1444 119.906L39.9087 119.261C39.807 119.14 39.7058 119.019 39.6051 118.898L38.8354 119.536C37.2012 117.566 35.6932 115.483 34.3243 113.299L35.1716 112.768C35.0878 112.634 35.0045 112.5 34.9218 112.366L34.0702 112.89C32.7311 110.714 31.5292 108.441 30.4771 106.083L31.3904 105.675C31.3261 105.531 31.2624 105.387 31.1993 105.242L30.2828 105.642C29.2633 103.305 28.3903 100.887 27.6758 98.3992L28.6369 98.1232C28.5934 97.9718 28.5505 97.8201 28.5082 97.6681L27.5449 97.9363C26.863 95.4865 26.3344 92.9706 25.9703 90.4001L26.9604 90.2599C26.9384 90.1041 26.9169 89.9482 26.8961 89.7921L25.9049 89.9243C25.5697 87.4112 25.3917 84.8469 25.3813 82.242L26.3813 82.238C26.381 82.1587 26.3809 82.0794 26.3809 82C26.3809 81.9206 26.381 81.8413 26.3813 81.762L25.3813 81.758C25.3917 79.1531 25.5697 76.5888 25.9049 74.0757L26.8961 74.2079C26.9169 74.0518 26.9384 73.8959 26.9604 73.7401L25.9703 73.5999C26.3344 71.0294 26.863 68.5135 27.5449 66.0637L28.5082 66.3319C28.5505 66.1799 28.5934 66.0282 28.6369 65.8768L27.6758 65.6007C28.3903 63.1129 29.2633 60.6945 30.2828 58.3579L31.1993 58.7578C31.2624 58.6132 31.3261 58.4689 31.3904 58.3249L30.4771 57.9174C31.5292 55.5592 32.7311 53.2858 34.0702 51.11L34.9218 51.6341C35.0045 51.4997 35.0878 51.3657 35.1716 51.2321L34.3243 50.7009C35.6932 48.5173 37.2012 46.4339 38.8354 44.4638L39.6051 45.1022C39.7058 44.9808 39.807 44.8598 39.9087 44.7392L39.1444 44.0944C40.8034 42.128 42.5891 40.2769 44.4887 38.5545L45.1604 39.2953C45.2772 39.1894 45.3945 39.084 45.5122 38.979L44.8467 38.2326C46.7636 36.5236 48.7938 34.9446 50.9243 33.5089L51.4832 34.3382C51.6139 34.2501 51.745 34.1626 51.8764 34.0756L51.3247 33.2416C53.4618 31.8278 55.6979 30.5574 58.0198 29.4437L58.4523 30.3454C58.5943 30.2773 58.7366 30.2097 58.8793 30.1428L58.4546 29.2375C60.7681 28.1524 63.1653 27.2222 65.6335 26.46L65.9286 27.4155C66.0789 27.3691 66.2294 27.3233 66.3803 27.2781L66.0936 26.3201C68.5332 25.59 71.0409 25.0236 73.6048 24.6332L73.7553 25.6218C73.9106 25.5981 74.066 25.5752 74.2217 25.5528L74.0798 24.563C76.5901 24.203 79.1533 24.0117 81.7579 24.0005L81.7622 25.0005C81.8414 25.0002 81.9206 25 81.9999 25C82.0792 25 82.1584 25.0002 82.2376 25.0005L82.2419 24.0005C84.8466 24.0117 87.4097 24.203 89.9201 24.563L89.7781 25.5528C89.9338 25.5752 90.0892 25.5981 90.2445 25.6218L90.395 24.6332C92.9589 25.0236 95.4667 25.59 97.9063 26.3201L97.6195 27.2781C97.7704 27.3233 97.921 27.3691 98.0713 27.4155L98.3663 26.46C100.835 27.2222 103.232 28.1524 105.545 29.2375L105.121 30.1428C105.263 30.2097 105.406 30.2773 105.548 30.3454L105.98 29.4437C108.302 30.5574 110.538 31.8278 112.675 33.2416L112.123 34.0756C112.255 34.1626 112.386 34.2501 112.517 34.3382L113.075 33.5089C115.206 34.9446 117.236 36.5236 119.153 38.2326L118.488 38.979C118.605 39.084 118.723 39.1894 118.839 39.2953L119.511 38.5545C121.411 40.2769 123.196 42.128 124.855 44.0944L124.091 44.7392C124.193 44.8598 124.294 44.9808 124.395 45.1022L125.164 44.4638C126.799 46.4339 128.307 48.5173 129.676 50.7009L128.828 51.2321C128.912 51.3657 128.995 51.4997 129.078 51.6341L129.93 51.11C131.269 53.2858 132.471 55.5592 133.523 57.9174L132.609 58.3249C132.674 58.4689 132.737 58.6132 132.8 58.7578L133.717 58.3579C134.737 60.6945 135.609 63.1129 136.324 65.6008L135.363 65.8768C135.406 66.0282 135.449 66.1799 135.492 66.3319L136.455 66.0637C137.137 68.5135 137.665 71.0294 138.029 73.5999L137.039 73.7401C137.061 73.8959 137.083 74.0518 137.104 74.2079L138.095 74.0757Z" stroke="#2AAF8C" stroke-opacity="0.05" stroke-width="2" stroke-dasharray="0.5 8"/>
</g>
<path opacity="0.2" d="M142.012 82C142.012 115.988 115.121 143.5 82.0002 143.5C48.8791 143.5 21.9883 115.988 21.9883 82C21.9883 48.0116 48.8791 20.5 82.0002 20.5C115.121 20.5 142.012 48.0116 142.012 82Z" stroke="#2AAF8C" stroke-width="2"/>
<path opacity="0.4" d="M74.9961 65.8538C77.367 64.4515 78.5524 63.7504 79.816 63.4763C80.9337 63.2338 82.0905 63.2338 83.2082 63.4763C84.4717 63.7504 85.6572 64.4515 88.0281 65.8538L92.1362 68.2834C94.4269 69.6382 95.5722 70.3156 96.4045 71.2538C97.1411 72.0839 97.6968 73.0583 98.0364 74.1148C98.4202 75.3088 98.4202 76.6395 98.4202 79.3008V84.6992C98.4202 87.3605 98.4202 88.6912 98.0364 89.8852C97.6968 90.9417 97.1411 91.9161 96.4045 92.7462C95.5722 93.6844 94.4269 94.3618 92.1362 95.7166L88.0281 98.1462C85.6572 99.5485 84.4717 100.25 83.2082 100.524C82.0905 100.766 80.9337 100.766 79.816 100.524C78.5524 100.25 77.367 99.5485 74.9961 98.1462L70.888 95.7166C68.5973 94.3618 67.452 93.6844 66.6196 92.7462C65.8831 91.9161 65.3274 90.9417 64.9878 89.8852C64.604 88.6912 64.604 87.3605 64.604 84.6992V79.3008C64.604 76.6395 64.604 75.3088 64.9878 74.1148C65.3274 73.0583 65.8831 72.0839 66.6196 71.2538C67.452 70.3156 68.5973 69.6382 70.888 68.2834L74.9961 65.8538Z" stroke="url(#paint0_linear_1069_1073)" stroke-width="2"/>
<path d="M86.3705 82C86.3705 84.7843 84.1733 87 81.5134 87C78.8534 87 76.6562 84.7843 76.6562 82C76.6562 79.2157 78.8534 77 81.5134 77C84.1733 77 86.3705 79.2157 86.3705 82Z" fill="#2AAF8C" stroke="url(#paint1_linear_1069_1073)" stroke-width="2"/>
<path d="M84.4169 34C84.4169 35.6797 83.0939 37 81.5122 37C79.9305 37 78.6074 35.6797 78.6074 34C78.6074 32.3203 79.9305 31 81.5122 31C83.0939 31 84.4169 32.3203 84.4169 34Z" fill="url(#paint2_linear_1069_1073)" stroke="url(#paint3_linear_1069_1073)" stroke-width="2"/>
<path d="M125.417 58C125.417 59.6797 124.094 61 122.512 61C120.931 61 119.607 59.6797 119.607 58C119.607 56.3203 120.931 55 122.512 55C124.094 55 125.417 56.3203 125.417 58Z" fill="url(#paint4_linear_1069_1073)" stroke="url(#paint5_linear_1069_1073)" stroke-width="2"/>
<path d="M125.417 106C125.417 107.68 124.094 109 122.512 109C120.931 109 119.607 107.68 119.607 106C119.607 104.32 120.931 103 122.512 103C124.094 103 125.417 104.32 125.417 106Z" fill="url(#paint6_linear_1069_1073)" stroke="url(#paint7_linear_1069_1073)" stroke-width="2"/>
<path d="M44.3935 58C44.3935 59.6797 43.0704 61 41.4887 61C39.9071 61 38.584 59.6797 38.584 58C38.584 56.3203 39.9071 55 41.4887 55C43.0704 55 44.3935 56.3203 44.3935 58Z" fill="url(#paint8_linear_1069_1073)" stroke="url(#paint9_linear_1069_1073)" stroke-width="2"/>
<path d="M44.3935 106C44.3935 107.68 43.0704 109 41.4887 109C39.9071 109 38.584 107.68 38.584 106C38.584 104.32 39.9071 103 41.4887 103C43.0704 103 44.3935 104.32 44.3935 106Z" fill="url(#paint10_linear_1069_1073)" stroke="url(#paint11_linear_1069_1073)" stroke-width="2"/>
<path d="M84.4169 130C84.4169 131.68 83.0939 133 81.5122 133C79.9305 133 78.6074 131.68 78.6074 130C78.6074 128.32 79.9305 127 81.5122 127C83.0939 127 84.4169 128.32 84.4169 130Z" fill="url(#paint12_linear_1069_1073)" stroke="url(#paint13_linear_1069_1073)" stroke-width="2"/>
<path opacity="0.25" d="M81.5117 54.1328L81.5117 39.5264" stroke="url(#paint14_linear_1069_1073)" stroke-width="2"/>
<path opacity="0.25" d="M81.5117 110.367L81.5117 124.974" stroke="url(#paint15_linear_1069_1073)" stroke-width="2"/>
<path opacity="0.25" d="M105.285 68.1914L117.634 60.8882" stroke="url(#paint16_linear_1069_1073)" stroke-width="2"/>
<path opacity="0.25" d="M57.7402 96.3086L45.3919 103.612" stroke="url(#paint17_linear_1069_1073)" stroke-width="2"/>
<path opacity="0.25" d="M57.7402 68.1914L45.3919 60.8882" stroke="url(#paint18_linear_1069_1073)" stroke-width="2"/>
<path opacity="0.25" d="M105.285 96.3086L117.634 103.612" stroke="url(#paint19_linear_1069_1073)" stroke-width="2"/>
<path d="M81.5117 57L81.5117 59" stroke="#2AAF8C" stroke-width="2" stroke-linecap="round"/>
<path d="M81.5117 57L81.5117 59" stroke="#2AAF8C" stroke-width="2" stroke-linecap="round"/>
<path d="M81.5117 105L81.5117 107" stroke="#2AAF8C" stroke-width="2" stroke-linecap="round"/>
<path d="M60.2324 69.625L61.9232 70.625" stroke="#2AAF8C" stroke-width="2" stroke-linecap="round"/>
<path d="M100.83 93.6836L102.521 94.6836" stroke="#2AAF8C" stroke-width="2" stroke-linecap="round"/>
<path d="M60.498 94.6738L62.1889 93.6738" stroke="#2AAF8C" stroke-width="2" stroke-linecap="round"/>
<path d="M101.17 70.625L102.861 69.625" stroke="#2AAF8C" stroke-width="2" stroke-linecap="round"/>
<defs>
<filter id="filter0_b_1069_1073" x="-24.6191" y="-26" width="213.238" height="216" filterUnits="userSpaceOnUse" color-interpolation-filters="sRGB">
<feFlood flood-opacity="0" result="BackgroundImageFix"/>
<feGaussianBlur in="BackgroundImageFix" stdDeviation="25"/>
<feComposite in2="SourceAlpha" operator="in" result="effect1_backgroundBlur_1069_1073"/>
<feBlend mode="normal" in="SourceGraphic" in2="effect1_backgroundBlur_1069_1073" result="shape"/>
</filter>
<linearGradient id="paint0_linear_1069_1073" x1="81.5121" y1="62" x2="81.5121" y2="102" gradientUnits="userSpaceOnUse">
<stop stop-color="#2AAF8C"/>
<stop offset="1" stop-color="#2AAF8C" stop-opacity="0"/>
</linearGradient>
<linearGradient id="paint1_linear_1069_1073" x1="81.5134" y1="76" x2="86.8254" y2="89.0898" gradientUnits="userSpaceOnUse">
<stop stop-color="white" stop-opacity="0.4"/>
<stop offset="0.4" stop-color="white" stop-opacity="0"/>
<stop offset="0.6" stop-color="white" stop-opacity="0"/>
<stop offset="1" stop-color="white" stop-opacity="0.1"/>
</linearGradient>
<linearGradient id="paint2_linear_1069_1073" x1="81.5122" y1="30" x2="85.5795" y2="39.4299" gradientUnits="userSpaceOnUse">
<stop stop-color="#2AAF8C"/>
<stop offset="1" stop-color="#BAFFED"/>
</linearGradient>
<linearGradient id="paint3_linear_1069_1073" x1="81.5122" y1="30" x2="85.0535" y2="38.7265" gradientUnits="userSpaceOnUse">
<stop stop-color="white" stop-opacity="0.4"/>
<stop offset="0.4" stop-color="white" stop-opacity="0"/>
<stop offset="0.6" stop-color="white" stop-opacity="0"/>
<stop offset="1" stop-color="white" stop-opacity="0.1"/>
</linearGradient>
<linearGradient id="paint4_linear_1069_1073" x1="122.512" y1="54" x2="126.58" y2="63.4299" gradientUnits="userSpaceOnUse">
<stop stop-color="#2AAF8C"/>
<stop offset="1" stop-color="#BAFFED"/>
</linearGradient>
<linearGradient id="paint5_linear_1069_1073" x1="122.512" y1="54" x2="126.054" y2="62.7265" gradientUnits="userSpaceOnUse">
<stop stop-color="white" stop-opacity="0.4"/>
<stop offset="0.4" stop-color="white" stop-opacity="0"/>
<stop offset="0.6" stop-color="white" stop-opacity="0"/>
<stop offset="1" stop-color="white" stop-opacity="0.1"/>
</linearGradient>
<linearGradient id="paint6_linear_1069_1073" x1="122.512" y1="102" x2="126.58" y2="111.43" gradientUnits="userSpaceOnUse">
<stop stop-color="#2AAF8C"/>
<stop offset="1" stop-color="#BAFFED"/>
</linearGradient>
<linearGradient id="paint7_linear_1069_1073" x1="122.512" y1="102" x2="126.054" y2="110.727" gradientUnits="userSpaceOnUse">
<stop stop-color="white" stop-opacity="0.4"/>
<stop offset="0.4" stop-color="white" stop-opacity="0"/>
<stop offset="0.6" stop-color="white" stop-opacity="0"/>
<stop offset="1" stop-color="white" stop-opacity="0.1"/>
</linearGradient>
<linearGradient id="paint8_linear_1069_1073" x1="41.4887" y1="54" x2="45.5561" y2="63.4299" gradientUnits="userSpaceOnUse">
<stop stop-color="#2AAF8C"/>
<stop offset="1" stop-color="#BAFFED"/>
</linearGradient>
<linearGradient id="paint9_linear_1069_1073" x1="41.4887" y1="54" x2="45.0301" y2="62.7265" gradientUnits="userSpaceOnUse">
<stop stop-color="white" stop-opacity="0.4"/>
<stop offset="0.4" stop-color="white" stop-opacity="0"/>
<stop offset="0.6" stop-color="white" stop-opacity="0"/>
<stop offset="1" stop-color="white" stop-opacity="0.1"/>
</linearGradient>
<linearGradient id="paint10_linear_1069_1073" x1="41.4887" y1="102" x2="45.5561" y2="111.43" gradientUnits="userSpaceOnUse">
<stop stop-color="#2AAF8C"/>
<stop offset="1" stop-color="#BAFFED"/>
</linearGradient>
<linearGradient id="paint11_linear_1069_1073" x1="41.4887" y1="102" x2="45.0301" y2="110.727" gradientUnits="userSpaceOnUse">
<stop stop-color="white" stop-opacity="0.4"/>
<stop offset="0.4" stop-color="white" stop-opacity="0"/>
<stop offset="0.6" stop-color="white" stop-opacity="0"/>
<stop offset="1" stop-color="white" stop-opacity="0.1"/>
</linearGradient>
<linearGradient id="paint12_linear_1069_1073" x1="81.5122" y1="126" x2="85.5795" y2="135.43" gradientUnits="userSpaceOnUse">
<stop stop-color="#2AAF8C"/>
<stop offset="1" stop-color="#BAFFED"/>
</linearGradient>
<linearGradient id="paint13_linear_1069_1073" x1="81.5122" y1="126" x2="85.0535" y2="134.727" gradientUnits="userSpaceOnUse">
<stop stop-color="white" stop-opacity="0.4"/>
<stop offset="0.4" stop-color="white" stop-opacity="0"/>
<stop offset="0.6" stop-color="white" stop-opacity="0"/>
<stop offset="1" stop-color="white" stop-opacity="0.1"/>
</linearGradient>
<linearGradient id="paint14_linear_1069_1073" x1="82.0117" y1="54.1328" x2="82.0117" y2="39.5264" gradientUnits="userSpaceOnUse">
<stop stop-color="#2AAF8C" stop-opacity="0"/>
<stop offset="1" stop-color="#2AAF8C"/>
</linearGradient>
<linearGradient id="paint15_linear_1069_1073" x1="82.0117" y1="110.367" x2="82.0117" y2="124.974" gradientUnits="userSpaceOnUse">
<stop stop-color="#2AAF8C" stop-opacity="0"/>
<stop offset="1" stop-color="#2AAF8C"/>
</linearGradient>
<linearGradient id="paint16_linear_1069_1073" x1="105.531" y1="68.627" x2="118.026" y2="61.5846" gradientUnits="userSpaceOnUse">
<stop stop-color="#2AAF8C" stop-opacity="0"/>
<stop offset="1" stop-color="#2AAF8C"/>
</linearGradient>
<linearGradient id="paint17_linear_1069_1073" x1="57.9857" y1="96.7442" x2="45.4904" y2="103.787" gradientUnits="userSpaceOnUse">
<stop stop-color="#2AAF8C" stop-opacity="0"/>
<stop offset="1" stop-color="#2AAF8C"/>
</linearGradient>
<linearGradient id="paint18_linear_1069_1073" x1="57.9857" y1="67.7558" x2="45.4904" y2="60.7134" gradientUnits="userSpaceOnUse">
<stop stop-color="#2AAF8C" stop-opacity="0"/>
<stop offset="1" stop-color="#2AAF8C"/>
</linearGradient>
<linearGradient id="paint19_linear_1069_1073" x1="105.531" y1="95.873" x2="118.026" y2="102.915" gradientUnits="userSpaceOnUse">
<stop stop-color="#2AAF8C" stop-opacity="0"/>
<stop offset="1" stop-color="#2AAF8C"/>
</linearGradient>
</defs>
</svg>
