<svg width="109" height="109" viewBox="0 0 109 109" fill="none" xmlns="http://www.w3.org/2000/svg">
<circle cx="54.666" cy="54.334" r="40.5" fill="#249729"/>
<path d="M73.9302 72.2423L58.8361 50.8364L57.1294 48.4154L46.3295 33.103L45.4349 31.834H32.166L35.4018 36.4242L49.7595 56.7859L51.4661 59.2042L63.0025 75.5661L63.8972 76.834H77.166L73.9302 72.2423ZM65.473 73.9029L53.4886 56.9058L51.782 54.4863L37.8753 34.7636H43.8576L55.1046 50.7131L56.8112 53.1326L71.4568 73.9022L65.473 73.9029Z" fill="white"/>
<path d="M52.8696 54.334L54.666 56.7701L52.5363 59.0844L36.1956 76.834H32.166L50.7398 56.6494L52.8696 54.334Z" fill="white"/>
<path d="M77.166 31.834L58.767 51.9075L56.5424 54.334L54.666 51.7781L56.8906 49.3501L69.3538 35.746L72.957 31.834H77.166Z" fill="white"/>
</svg>
