<svg width="109" height="109" viewBox="0 0 109 109" fill="none" xmlns="http://www.w3.org/2000/svg">
<g clip-path="url(#clip0_370_1210)">
<path d="M50.2188 56.5576C50.2188 59.8103 47.8884 62.457 44.9585 62.457C42.0745 62.457 39.6982 59.8103 39.6982 56.5576C39.6982 53.3065 42.0286 50.6582 44.9585 50.6582C47.9106 50.6582 50.2646 53.3303 50.2188 56.5576Z" fill="#249729"/>
<path d="M69.6689 56.5576C69.6689 59.8103 67.3623 62.457 64.4087 62.457C61.5246 62.457 59.1484 59.8103 59.1484 56.5576C59.1484 53.3065 61.4788 50.6582 64.4087 50.6582C67.3623 50.6582 69.7148 53.3303 69.6689 56.5576Z" fill="#249729"/>
<path d="M54.666 13.834C32.2993 13.834 14.166 31.9672 14.166 54.334C14.166 76.7007 32.2993 94.834 54.666 94.834C77.0328 94.834 95.166 76.7007 95.166 54.334C95.166 31.9672 77.0328 13.834 54.666 13.834ZM83.6029 69.2446C78.5974 72.9213 73.7469 75.1535 68.9644 76.6327C68.8885 76.6564 68.8062 76.628 68.7587 76.5631C67.6545 75.0254 66.6515 73.4038 65.7719 71.7015C65.7213 71.6019 65.7671 71.4816 65.8715 71.4421C67.4646 70.8393 68.9802 70.1195 70.4389 69.2684C70.5544 69.2003 70.5607 69.0358 70.4547 68.9567C70.1462 68.7273 69.8393 68.4853 69.5466 68.2432C69.4912 68.1989 69.4169 68.1894 69.3552 68.2195C59.8883 72.5938 49.5181 72.5938 39.9389 68.2195C39.8772 68.1926 39.8028 68.2021 39.7506 68.2464C39.4579 68.4868 39.151 68.7273 38.8441 68.9567C38.7381 69.0358 38.746 69.2003 38.8615 69.2684C40.3202 70.1037 41.8357 70.8393 43.4273 71.4437C43.5317 71.4832 43.5807 71.6019 43.5285 71.7015C42.6695 73.407 41.6649 75.027 40.5401 76.5647C40.491 76.628 40.4103 76.6564 40.3344 76.6327C35.5741 75.1535 30.7251 72.9213 25.718 69.2446C25.6769 69.2114 25.6468 69.1608 25.6421 69.107C24.6232 58.1862 26.702 47.1294 34.2895 35.7926C34.3084 35.7625 34.3353 35.7388 34.3686 35.7261C38.1006 34.0112 42.1015 32.7503 46.2812 32.0305C46.3572 32.0194 46.4331 32.0542 46.4727 32.1207C46.99 33.0367 47.5801 34.209 47.9804 35.1677C52.3863 34.4953 56.8619 34.4953 61.3612 35.1677C61.7598 34.2295 62.3294 33.0367 62.8435 32.1207C62.8831 32.0511 62.959 32.0163 63.035 32.0305C67.2179 32.7519 71.2188 34.0144 74.9492 35.7261C74.9825 35.7388 75.0094 35.7625 75.0252 35.7957C81.6349 45.5173 84.9002 56.484 83.6789 69.1102C83.6741 69.1639 83.6472 69.2114 83.6029 69.2446Z" fill="#249729"/>
</g>
<defs>
<clipPath id="clip0_370_1210">
<rect width="81" height="81" fill="white" transform="translate(14.166 13.834)"/>
</clipPath>
</defs>
</svg>
