
<svg width="25" height="24" viewBox="0 0 25 24" fill="none" xmlns="http://www.w3.org/2000/svg">
<path d="M20.0155 18.3674L14.6487 10.7564L14.0419 9.89561L10.2019 4.45119L9.88383 4H5.16602L6.31651 5.63208L11.4215 12.8718L12.0283 13.7316L16.1301 19.5492L16.4482 20H21.166L20.0155 18.3674ZM17.0085 18.9578L12.7474 12.9144L12.1406 12.0542L7.19597 5.04163H9.32301L13.322 10.7126L13.9288 11.5728L19.1361 18.9576L17.0085 18.9578Z" fill="white"/>
<path d="M12.5273 12L13.166 12.8662L12.4088 13.689L6.59875 20H5.16602L11.77 12.8232L12.5273 12Z" fill="white"/>
<path d="M21.166 4L14.6242 11.1373L13.8332 12L13.166 11.0912L13.957 10.228L18.3884 5.39094L19.6695 4H21.166Z" fill="white"/>
</svg>
